<?xml version="1.0" standalone="no"?>
<!DOCTYPE svg PUBLIC "-//W3C//DTD SVG 20010904//EN"
 "http://www.w3.org/TR/2001/REC-SVG-20010904/DTD/svg10.dtd">
<svg version="1.0" xmlns="http://www.w3.org/2000/svg"
 width="466.000000pt" height="536.000000pt" viewBox="0 0 466.000000 536.000000"
 preserveAspectRatio="xMidYMid meet">

<g transform="translate(0.000000,536.000000) scale(0.100000,-0.100000)"
fill="#000000" stroke="none">
<path d="M1652 3943 c-47 -23 -80 -71 -92 -133 -12 -62 -13 -912 -1 -983 9
-55 33 -92 81 -124 43 -30 125 -31 178 -4 55 29 516 497 536 545 22 52 20 119
-4 166 -25 48 -491 513 -536 535 -42 20 -120 19 -162 -2z"/>
<path d="M2255 3941 c-47 -22 -100 -71 -110 -101 -6 -18 5 -35 57 -89 321
-329 324 -333 334 -399 14 -92 -3 -118 -200 -320 -100 -101 -185 -191 -189
-199 -22 -38 48 -113 132 -141 57 -20 132 -15 187 13 66 33 506 473 530 531
21 51 21 122 -2 169 -25 53 -487 512 -539 536 -53 24 -147 24 -200 0z"/>
<path d="M2854 3951 c-11 -5 -33 -23 -47 -41 -51 -60 -30 -147 43 -185 57 -29
138 -7 165 46 42 81 -7 177 -95 185 -25 2 -54 0 -66 -5z"/>
<path d="M2420 2220 c-11 -11 -20 -27 -20 -35 0 -21 36 -55 59 -55 20 0 51 35
51 57 0 18 -37 53 -55 53 -8 0 -24 -9 -35 -20z"/>
<path d="M3058 2229 c-25 -14 -24 -75 1 -89 11 -5 24 -10 30 -10 16 0 51 38
51 55 0 18 -35 55 -52 55 -7 0 -21 -5 -30 -11z"/>
<path d="M675 2205 c-46 -21 -63 -39 -80 -79 -31 -74 15 -155 100 -176 127
-32 145 -43 145 -90 0 -83 -140 -93 -171 -12 -8 20 -15 23 -51 20 -39 -3 -43
-5 -40 -28 5 -36 45 -85 87 -104 52 -25 145 -23 193 4 51 29 72 66 72 128 0
85 -33 111 -191 152 -52 13 -74 43 -63 86 8 31 32 44 79 44 30 0 44 -7 69 -35
24 -26 41 -35 64 -35 28 0 32 3 32 28 0 34 -37 78 -83 97 -45 19 -122 19 -162
0z"/>
<path d="M1523 2194 c-119 -59 -169 -175 -132 -308 16 -57 101 -138 162 -155
118 -33 241 14 298 113 24 43 29 62 29 121 0 82 -20 134 -71 184 -75 75 -190
93 -286 45z m195 -81 c15 -10 37 -39 50 -64 57 -108 -16 -249 -130 -249 -80 0
-138 44 -159 120 -22 82 12 167 81 203 44 23 120 18 158 -10z"/>
<path d="M2240 2125 c0 -52 -3 -95 -6 -95 -3 0 -17 9 -31 19 -36 29 -101 36
-148 16 -78 -32 -108 -80 -109 -172 0 -50 5 -69 28 -103 47 -71 149 -94 223
-50 32 19 37 20 45 6 6 -10 23 -16 43 -16 31 0 35 3 40 33 4 24 1 326 -4 445
-1 7 -16 12 -41 12 l-40 0 0 -95z m-33 -141 c25 -16 38 -68 30 -120 -8 -46
-21 -61 -66 -75 -81 -24 -151 43 -136 131 13 78 100 110 172 64z"/>
<path d="M3956 1992 c-4 -126 -4 -236 0 -245 4 -12 18 -17 45 -17 l39 0 0 245
0 245 -38 0 -39 0 -7 -228z"/>
<path d="M1010 1970 l0 -240 156 0 155 0 -3 33 -3 32 -107 3 -108 3 0 64 0 65
100 0 100 0 0 40 0 40 -100 0 -101 0 3 63 3 62 103 3 102 3 0 34 0 35 -150 0
-150 0 0 -240z"/>
<path d="M3258 2123 c-3 -44 -5 -48 -33 -53 -25 -4 -30 -10 -30 -35 0 -25 5
-31 30 -35 l30 -5 3 -105 c2 -71 7 -112 17 -127 18 -26 76 -46 125 -41 29 2
36 7 38 28 3 23 -2 27 -43 38 l-45 12 -1 50 c0 27 -1 64 -1 80 0 72 -1 70 47
70 45 0 45 0 45 35 0 35 0 35 -45 35 -44 0 -53 8 -46 44 1 6 0 20 -4 33 -4 19
-12 23 -45 23 l-39 0 -3 -47z"/>
<path d="M2682 2068 c-42 -14 -88 -67 -103 -119 -22 -71 14 -164 75 -196 42
-23 135 -23 169 0 42 27 50 22 43 -25 -10 -64 -38 -88 -101 -88 -37 0 -60 6
-78 20 -23 18 -97 29 -97 14 0 -3 8 -19 17 -35 40 -67 167 -90 253 -46 75 38
84 60 90 205 3 70 4 160 2 200 l-3 72 -31 0 c-17 0 -39 -7 -49 -16 -16 -14
-19 -14 -41 0 -32 21 -105 28 -146 14z m138 -73 c51 -26 64 -130 20 -170 -41
-37 -131 -28 -159 16 -16 28 -16 101 1 128 24 39 89 51 138 26z"/>
<path d="M3584 2061 c-23 -10 -54 -36 -70 -56 -24 -32 -28 -46 -28 -105 0 -56
4 -74 26 -107 49 -74 149 -98 224 -54 33 20 38 21 46 7 5 -10 22 -16 42 -16
29 0 34 4 40 31 8 40 8 223 0 272 -6 34 -9 37 -41 37 -26 0 -36 -5 -40 -20 -6
-24 -11 -25 -32 -6 -20 16 -77 36 -105 36 -12 0 -40 -9 -62 -19z m141 -65 c18
-8 38 -23 44 -34 16 -30 13 -114 -4 -139 -22 -32 -77 -47 -119 -33 -48 15 -68
43 -73 97 -4 39 -1 53 17 76 37 47 78 57 135 33z"/>
<path d="M2417 2064 c-4 -4 -7 -81 -7 -171 l0 -163 45 0 45 0 -2 168 -3 167
-35 3 c-20 2 -39 0 -43 -4z"/>
<path d="M3045 2058 c-3 -8 -4 -83 -3 -168 l3 -155 43 -3 42 -3 -2 168 -3 168
-38 3 c-24 2 -39 -1 -42 -10z"/>
</g>
</svg>
